<?xml version="1.0" encoding="utf-8"?>
<!-- Generator: Adobe Illustrator 22.0.1, SVG Export Plug-In . SVG Version: 6.00 Build 0)  -->
<svg version="1.1" id="amazon-pay" xmlns="http://www.w3.org/2000/svg" xmlns:xlink="http://www.w3.org/1999/xlink" x="0px" y="0px"
	 viewBox="0 0 612 792" style="enable-background:new 0 0 612 792;" xml:space="preserve">
<path d="M451.1,346.7c-6,0-11.6,2-16.9,5.9v35.6c5.4,4.1,10.9,6.1,16.6,6.1c11.6,0,17.4-7.9,17.4-23.8
	C468.3,354.7,462.6,346.7,451.1,346.7L451.1,346.7z M433.4,345.1c3.2-2.8,6.6-5,10.2-6.4c3.6-1.4,7.3-2.2,11.1-2.2
	c4,0,7.7,0.8,11,2.3c3.3,1.5,6.1,3.8,8.3,6.6c2.3,2.9,4,6.4,5.2,10.5c1.2,4.1,1.8,8.8,1.8,14c0,5.3-0.7,10-2,14.3
	c-1.3,4.3-3.1,7.9-5.5,10.9c-2.4,3-5.2,5.3-8.6,7c-3.4,1.7-7.1,2.5-11.2,2.5c-7.6,0-14.1-2.5-19.5-7.5v29.9c0,1.7-0.8,2.5-2.5,2.5
	h-7.4c-1.7,0-2.5-0.9-2.5-2.6v-86c0-1.7,0.8-2.6,2.5-2.6h5.5c1.7,0,2.6,0.9,2.9,2.6L433.4,345.1L433.4,345.1z M512.5,395.3
	c2.8,0,5.7-0.6,8.7-1.7c3-1.1,5.9-2.7,8.7-4.9v-13c-2.1-0.5-4.3-0.9-6.6-1.2c-2.3-0.3-4.6-0.4-6.7-0.4c-9.5,0-14.2,3.7-14.2,11.1
	c0,3.2,0.9,5.7,2.6,7.5C506.7,394.4,509.3,395.3,512.5,395.3z M497.8,349.5l-0.9,0.3c-0.4,0.1-0.7,0.2-1.1,0.2
	c-1.1,0-1.6-0.8-1.6-2.3v-3.4c0-1.2,0.2-2,0.5-2.5c0.3-0.5,1-0.9,2-1.3c2.7-1.2,6-2.2,10-2.9c3.9-0.7,7.9-1.1,11.8-1.1
	c8,0,13.9,1.7,17.6,5c3.8,3.3,5.7,8.5,5.7,15.5v43.7c0,1.7-0.8,2.6-2.5,2.6h-5.4c-1.6,0-2.5-0.8-2.8-2.4l-0.6-4.2
	c-3,2.6-6.4,4.7-10,6.1c-3.7,1.4-7.3,2.2-10.9,2.2c-6.1,0-10.8-1.7-14.4-5.2c-3.5-3.4-5.3-8.1-5.3-13.9c0-6.2,2.2-11.2,6.5-14.9
	c4.4-3.7,10.3-5.6,17.7-5.6c4.7,0,10,0.7,15.9,2.2v-8.4c0-4.6-1-7.8-3-9.7c-2-1.9-5.5-2.8-10.6-2.8
	C510.4,346.6,504.2,347.6,497.8,349.5L497.8,349.5z M582.7,414.6c-2.3,5.9-4.9,10.1-7.9,12.7c-3,2.5-6.9,3.8-11.7,3.8
	c-2.7,0-5.1-0.3-7.2-0.9c-0.9-0.2-1.6-0.7-2-1.2c-0.4-0.6-0.6-1.4-0.6-2.6V423c0-1.6,0.6-2.4,1.9-2.4c0.4,0,1.1,0.1,1.9,0.3
	c0.8,0.2,2,0.3,3.4,0.3c3.2,0,5.7-0.8,7.4-2.3c1.8-1.5,3.4-4.4,4.8-8.4l2.4-6.5L550.8,343c-0.6-1.4-0.9-2.5-0.9-3.1
	c0-1,0.6-1.5,1.8-1.5h7.6c1.3,0,2.3,0.2,2.8,0.6c0.5,0.4,1,1.4,1.5,2.8l17.7,49.6l17-49.6c0.5-1.4,1-2.4,1.5-2.8
	c0.5-0.4,1.4-0.6,2.8-0.6h7.1c1.2,0,1.8,0.5,1.8,1.6c0,0.6-0.3,1.6-0.9,3.1L582.7,414.6 M240.9,428.8
	c-22.6,16.9-55.3,25.9-83.5,25.9c-39.5,0-75.1-14.8-102-39.4c-2.1-1.9-0.2-4.6,2.3-3.1c29,17.1,65,27.4,102,27.4
	c25,0,52.5-5.3,77.8-16.2C241.4,421.8,244.6,426,240.9,428.8"/>
<path d="M250.3,417.9c-2.9-3.7-19.1-1.8-26.4-0.9c-2.2,0.2-2.5-1.7-0.6-3.1c12.9-9.2,34.1-6.5,36.6-3.5c2.5,3.1-0.6,24.6-12.8,34.9
	c-1.9,1.6-3.6,0.7-2.8-1.4C247.1,437.1,253.2,421.7,250.3,417.9 M224.6,348.4v-8.9c0-1.4,1-2.3,2.2-2.3h39.5c1.3,0,2.3,0.9,2.3,2.2
	v7.7c0,1.3-1.1,3-3,5.6l-20.5,29.6c7.6-0.2,15.6,1,22.5,4.9c1.6,0.9,2,2.2,2.1,3.5v9.5c0,1.3-1.4,2.8-2.9,2
	c-12.2-6.5-28.3-7.2-41.8,0.1c-1.4,0.7-2.8-0.8-2.8-2.1v-9.1c0-1.5,0-3.9,1.5-6.1l23.7-34.5h-20.6
	C225.6,350.6,224.6,349.7,224.6,348.4 M80.4,404.2h-12c-1.1-0.1-2.1-0.9-2.1-2.1v-62.6c0-1.2,1-2.2,2.3-2.2h11.2
	c1.2,0.1,2.1,1,2.2,2.1v8.2h0.2c2.9-7.9,8.4-11.6,15.8-11.6c7.5,0,12.2,3.7,15.6,11.6c2.9-7.9,9.6-11.6,16.6-11.6
	c5.1,0,10.5,2.1,13.9,6.8c3.8,5.3,3,12.9,3,19.6l0,39.5c0,1.2-1,2.2-2.3,2.2h-12c-1.2-0.1-2.2-1-2.2-2.2v-33.2
	c0-2.6,0.2-9.2-0.3-11.7c-0.9-4.2-3.6-5.4-7.1-5.4c-2.9,0-5.9,2-7.2,5.1c-1.2,3.2-1.1,8.4-1.1,12V402c0,1.2-1,2.2-2.3,2.2h-12
	c-1.2-0.1-2.2-1-2.2-2.2v-33.2c0-7,1.1-17.2-7.4-17.2c-8.6,0-8.3,10-8.3,17.2V402C82.7,403.2,81.7,404.2,80.4,404.2 M302.7,348.8
	c-8.9,0-9.4,12.2-9.4,19.9c0,7.6-0.1,24,9.3,24c9.3,0,9.8-13.2,9.8-21.2c0-5.3-0.2-11.6-1.8-16.6
	C309.2,350.5,306.5,348.8,302.7,348.8L302.7,348.8z M302.6,336c17.9,0,27.5,15.5,27.5,35.3c0,19.1-10.7,34.2-27.5,34.2
	c-17.5,0-27.1-15.5-27.1-34.9C275.6,351.2,285.2,336,302.6,336L302.6,336z M353.3,404.2h-12c-1.2-0.1-2.2-1-2.2-2.2l0-62.6
	c0.1-1.1,1.1-2,2.3-2h11.1c1.1,0.1,1.9,0.8,2.1,1.7v9.6h0.2c3.4-8.6,8.1-12.6,16.4-12.6c5.4,0,10.7,2,14,7.4
	c3.1,5,3.1,13.4,3.1,19.5v39.4c-0.1,1.1-1.1,2-2.3,2h-12c-1.1-0.1-2-0.9-2.1-2v-34c0-6.8,0.8-16.9-7.5-16.9c-2.9,0-5.6,2-7,5
	c-1.7,3.8-1.9,7.6-1.9,11.9V402C355.6,403.2,354.5,404.2,353.3,404.2 M205.2,404.7c-0.8,0.7-1.9,0.8-2.8,0.3c-4-3.4-4.7-4.9-6.9-8.1
	c-6.6,6.8-11.3,8.9-19.8,8.9c-10.1,0-18-6.3-18-19c0-9.9,5.3-16.6,12.8-19.9c6.5-2.9,15.6-3.4,22.6-4.2v-1.6c0-2.9,0.2-6.3-1.5-8.8
	c-1.5-2.2-4.3-3.2-6.7-3.2c-4.6,0-8.7,2.4-9.7,7.3c-0.2,1.1-1,2.2-2.1,2.2l-11.7-1.3c-1-0.2-2.1-1-1.8-2.5
	c2.7-14.3,15.5-18.7,26.9-18.7c5.8,0,13.5,1.6,18.1,6.1c5.8,5.5,5.3,12.9,5.3,21v19c0,5.7,2.4,8.2,4.5,11.3c0.8,1.1,0.9,2.4,0,3.2
	C212,398.7,207.6,402.5,205.2,404.7L205.2,404.7L205.2,404.7z M193,374.9v-2.6c-8.7,0-17.9,1.9-17.9,12.3c0,5.3,2.7,8.8,7.3,8.8
	c3.4,0,6.4-2.1,8.3-5.5C193.2,383.6,193.1,379.7,193,374.9L193,374.9z M47.5,404.6c-0.8,0.7-1.9,0.8-2.8,0.3c-4-3.4-4.7-4.9-6.9-8.1
	c-6.6,6.8-11.3,8.9-19.8,8.9c-10.1,0-18-6.3-18-19c0-9.9,5.3-16.6,12.8-19.9c6.5-2.9,15.6-3.4,22.6-4.2v-1.6c0-2.9,0.2-6.3-1.5-8.8
	c-1.5-2.2-4.3-3.2-6.8-3.2c-4.6,0-8.7,2.4-9.7,7.3c-0.2,1.1-1,2.2-2.1,2.2l-11.6-1.3c-1-0.2-2.1-1-1.8-2.6
	C4.7,340.3,17.5,336,28.9,336c5.8,0,13.5,1.6,18.1,6.1c5.8,5.5,5.3,12.9,5.3,21v19c0,5.7,2.3,8.2,4.5,11.3c0.8,1.1,0.9,2.4,0,3.2
	C54.3,398.7,50,402.5,47.5,404.6L47.5,404.6L47.5,404.6z M35.4,374.9v-2.6c-8.7,0-17.9,1.9-17.9,12.3c0,5.3,2.7,8.8,7.3,8.8
	c3.4,0,6.4-2.1,8.3-5.5C35.5,383.6,35.4,379.7,35.4,374.9L35.4,374.9z"/>
</svg>
