<?xml version="1.0" encoding="utf-8"?>
<!-- Generator: Adobe Illustrator 22.0.1, SVG Export Plug-In . SVG Version: 6.00 Build 0)  -->
<svg version="1.1" id="Layer_1" xmlns="http://www.w3.org/2000/svg" xmlns:xlink="http://www.w3.org/1999/xlink" x="0px" y="0px"
	 viewBox="0 0 20 19" style="enable-background:new 0 0 20 19;" xml:space="preserve">
<style type="text/css">
	.st0{fill:#80C6D2;}
</style>
<path class="st0" d="M17.2,13.1H5.5c-0.5,0-0.9-0.4-0.9-0.8L3.7,1.8H0V0h4.5C5,0,5.5,0.4,5.5,0.8l0.1,1.3H19c0.3,0,0.5,0.1,0.7,0.4
	c0.2,0.2,0.3,0.5,0.2,0.7l-1.8,9.2C18,12.8,17.6,13.1,17.2,13.1L17.2,13.1z M6.3,11.3h10.1l1.5-7.4H5.6L6.3,11.3L6.3,11.3z M6.4,19
	c1,0,1.8-0.8,1.8-1.8s-0.8-1.8-1.8-1.8s-1.8,0.8-1.8,1.8S5.4,19,6.4,19z M15.5,19c1,0,1.8-0.8,1.8-1.8s-0.8-1.8-1.8-1.8
	s-1.8,0.8-1.8,1.8S14.5,19,15.5,19L15.5,19z"/>
</svg>
