<?xml version="1.0" encoding="utf-8"?>
<!-- Generator: Adobe Illustrator 22.0.1, SVG Export Plug-In . SVG Version: 6.00 Build 0)  -->
<svg version="1.1" id="error" xmlns="http://www.w3.org/2000/svg" xmlns:xlink="http://www.w3.org/1999/xlink" x="0px" y="0px"
	 viewBox="0 0 612 792" style="enable-background:new 0 0 612 792;" xml:space="preserve">
<style type="text/css">
	.st0{fill:#E32C2B;}
</style>
<path class="st0" d="M306,702C137,702,0,565,0,396S137,90,306,90s306,137,306,306S475,702,306,702z M306,651
	c140.8,0,255-114.2,255-255S446.8,141,306,141S51,255.2,51,396S165.2,651,306,651z M306,243c14.1,0,25.5,11.4,25.5,25.5V396
	c0,14.1-11.4,25.5-25.5,25.5s-25.5-11.4-25.5-25.5V268.5C280.5,254.4,291.9,243,306,243z M267.8,510.8c0-21.1,17-38.2,38.2-38.2
	c21.1,0,38.2,17,38.2,38.2c0,21.1-17,38.2-38.2,38.2C284.9,549,267.8,532,267.8,510.8z"/>
</svg>
