<?xml version="1.0" encoding="utf-8"?>
<!-- Generator: Adobe Illustrator 22.0.1, SVG Export Plug-In . SVG Version: 6.00 Build 0)  -->
<svg version="1.1" id="Layer_1" xmlns="http://www.w3.org/2000/svg" xmlns:xlink="http://www.w3.org/1999/xlink" x="0px" y="0px"
	 viewBox="0 0 14 14" style="enable-background:new 0 0 14 14;" xml:space="preserve">
<style type="text/css">
	.st0{fill:#919191;}
</style>
<path class="st0" d="M12,6h-1V4c0-2.2-1.8-4-4-4S3,1.8,3,4v2H2C1.5,6,1,6.5,1,7v6c0,0.5,0.5,1,1,1h10c0.5,0,1-0.5,1-1V7
	C13,6.5,12.5,6,12,6z M5,4c0-1.1,0.9-2,2-2s2,0.9,2,2v2H5V4z"/>
</svg>
