<?xml version="1.0" encoding="utf-8"?>
<!-- Generator: Adobe Illustrator 22.0.1, SVG Export Plug-In . SVG Version: 6.00 Build 0)  -->
<svg version="1.1" id="Layer_1" xmlns="http://www.w3.org/2000/svg" xmlns:xlink="http://www.w3.org/1999/xlink" x="0px" y="0px"
	 viewBox="0 0 16 16" style="enable-background:new 0 0 16 16;" xml:space="preserve">
<style type="text/css">
	.st0{fill:#919191;}
</style>
<path class="st0" d="M8,0C3.6,0,0,3.6,0,8s3.6,8,8,8s8-3.6,8-8S12.4,0,8,0z M8.7,13H6.8v-2h1.9V13z M11.3,5.9c0,1.8-1.3,2.6-2.8,2.8
	L8.4,9.8H7.3L7,7.5l0.1-0.1c1.8-0.1,2.6-0.6,2.6-1.6c0-0.8-0.6-1.3-1.6-1.3c-0.9,0-1.6,0.4-2.3,1.1L4.7,4.5c0.8-0.9,1.9-1.6,3.4-1.6
	C10,3,11.3,4.1,11.3,5.9z"/>
</svg>
